<svg xmlns="http://www.w3.org/2000/svg" width="64" height="64" viewBox="0 0 64 64">
  <path fill="#FFFFFF" d="M8.2176,0.00256 L55.78624,0.00256 C60.3054933,0.00256 64,3.69834667 64,8.2176 L64,55.78624 C64,60.3042133 60.3054933,63.99744 55.78624,63.99744 L8.2176,63.99744 C3.69834667,63.99744 0,60.304 0,55.78624 L0,8.2176 C0,3.69834667 3.69834667,0.00256 8.2176,0.00256 Z M46.6231467,7.11018667 C45.0363733,7.11018667 43.74208,8.4096 43.74208,9.99552 L43.74208,16.8891733 C43.74208,18.4757333 45.0363733,19.77216 46.6231467,19.77216 L53.8557867,19.77216 C55.44,19.77216 56.7370667,18.4757333 56.7370667,16.8891733 L56.7370667,9.99552 C56.7370667,8.4096 55.44,7.11018667 53.8557867,7.11018667 L46.6231467,7.11018667 Z M56.7645867,27.0651733 L51.13344,27.0651733 C51.6674133,28.8091733 51.9569067,30.64832 51.9569067,32.5604267 C51.9569067,43.20192 43.0468267,51.83296 32.06016,51.83296 C21.0762667,51.83296 12.1659733,43.20192 12.1659733,32.5604267 C12.1659733,30.64832 12.45824,28.8091733 12.9896533,27.0651733 L7.11466667,27.0651733 L7.11466667,54.1013333 C7.11466667,55.50144 8.25792,56.6404267 9.65674667,56.6404267 L54.2235733,56.6404267 C55.62368,56.6404267 56.7645867,55.50144 56.7645867,54.1013333 L56.7645867,27.0651733 Z M32.0603733,19.40864 C24.9649067,19.40864 19.2091733,24.9826133 19.2091733,31.8647467 C19.2091733,38.73984 24.9649067,44.31808 32.0603733,44.31808 C39.15968,44.31808 44.9156267,38.73984 44.9156267,31.8647467 C44.9156267,24.9824 39.15968,19.40864 32.0603733,19.40864 Z"/>
</svg>
