<svg xmlns="http://www.w3.org/2000/svg" width="64" height="64" viewBox="0 0 64 64">
  <path fill="#FFFFFF" d="M64,6.19691503 C61.6444444,7.24067974 59.1169673,7.94854902 56.4613856,8.26457516 C59.172915,6.6408366 61.2485229,4.06535948 62.2322614,1.0059085 C59.6887843,2.50959477 56.8812549,3.60146405 53.8897778,4.19335948 C51.4942745,1.63785621 48.086902,0.0461176471 44.3075556,0.0461176471 C37.0569412,0.0461176471 31.1780392,5.92501961 31.1780392,13.1716601 C31.1780392,14.1994248 31.2940131,15.2032418 31.5180131,16.1631373 C20.6081046,15.6151634 10.9339608,10.388183 4.45918954,2.44559477 C3.32737255,4.38128105 2.68350327,6.63675817 2.68350327,9.04439216 C2.68350327,13.5995817 5.00308497,17.6188235 8.52245752,19.9703007 C6.37082353,19.8983529 4.34718954,19.3064575 2.5755817,18.3226144 L2.5755817,18.4865882 C2.5755817,24.8453856 7.1027451,30.152366 13.1055686,31.3602092 C12.0057516,31.6561569 10.8460131,31.8201307 9.64622222,31.8201307 C8.79843137,31.8201307 7.97856209,31.7361569 7.17469281,31.5761569 C8.8463268,36.7951895 13.6934902,40.5904314 19.4364444,40.6944837 C14.9452549,44.2138562 9.28230065,46.3054641 3.13150327,46.3054641 C2.07173856,46.3054641 1.02786928,46.2414641 0.000104575163,46.1254902 C5.81103268,49.8568366 12.7097516,52.0324183 20.1243399,52.0324183 C44.2757647,52.0324183 57.4773333,32.0281307 57.4773333,14.6794248 L57.4333072,12.9797647 C60.0127582,11.1399739 62.2442876,8.82844444 64,6.19691503 Z" transform="translate(0 6)"/>
</svg>
